<svg width="475" height="337" viewBox="0 0 475 337" fill="none" xmlns="http://www.w3.org/2000/svg">
<g clip-path="url(#clip0_297_6)">
<path d="M190.01 336.78C275.261 336.78 344.37 332.746 344.37 327.77C344.37 322.794 275.261 318.76 190.01 318.76C104.759 318.76 35.65 322.794 35.65 327.77C35.65 332.746 104.759 336.78 190.01 336.78Z" fill="#F5F5F5"/>
<path d="M0 62.3702H41.17V112.37H51.76V84.0702H104.11V128.88H111.03V23.7102H156.52V52.5802H179.84V88.4802H186.9V65.9102H228.25V133.31H240.35V78.5102H278.18V36.9002H303.89V13.2202H333.67V118.32H343.67V74.4502H392.67V137.22H399.46V85.9902H449.15V39.8102H474.51V217.22H0" fill="#EBEBEB"/>
<path d="M5.04999 78.2202H12.05V68.6602H5.04999" fill="white"/>
<path d="M24.09 68.6602H17.09V78.2202H24.09V68.6602Z" fill="white"/>
<path d="M36.16 68.6602H29.16V78.2202H36.16V68.6602Z" fill="white"/>
<path d="M5.04999 92.59H12.05V83.04H5.04999" fill="white"/>
<path d="M24.09 83.04H17.09V92.59H24.09V83.04Z" fill="white"/>
<path d="M36.16 83.04H29.16V92.59H36.16V83.04Z" fill="white"/>
<path d="M5.04999 106.97H12.05V97.4204H5.04999" fill="white"/>
<path d="M24.09 97.4204H17.09V106.97H24.09V97.4204Z" fill="white"/>
<path d="M36.16 97.4204H29.16V106.97H36.16V97.4204Z" fill="white"/>
<path d="M5.04999 121.35H12.05V111.8H5.04999" fill="white"/>
<path d="M24.09 111.8H17.09V121.35H24.09V111.8Z" fill="white"/>
<path d="M36.16 111.8H29.16V121.35H36.16V111.8Z" fill="white"/>
<path d="M253.13 85.3403H246.13V93.3403H253.13V85.3403Z" fill="white"/>
<path d="M265.2 85.3403H258.2V93.3403H265.2V85.3403Z" fill="white"/>
<path d="M277.27 85.3403H270.27V93.3403H277.27V85.3403Z" fill="white"/>
<path d="M253.13 97.3403H246.13V105.34H253.13V97.3403Z" fill="white"/>
<path d="M265.2 97.3403H258.2V105.34H265.2V97.3403Z" fill="white"/>
<path d="M277.27 97.3403H270.27V105.34H277.27V97.3403Z" fill="white"/>
<path d="M253.13 109.34H246.13V117.34H253.13V109.34Z" fill="white"/>
<path d="M265.2 109.34H258.2V117.34H265.2V109.34Z" fill="white"/>
<path d="M277.27 109.34H270.27V117.34H277.27V109.34Z" fill="white"/>
<path d="M253.13 121.32H246.13V129.32H253.13V121.32Z" fill="white"/>
<path d="M265.2 121.32H258.2V129.32H265.2V121.32Z" fill="white"/>
<path d="M277.27 121.32H270.27V129.32H277.27V121.32Z" fill="white"/>
<path d="M253.13 133.63H246.13V141.63H253.13V133.63Z" fill="white"/>
<path d="M265.2 133.63H258.2V141.63H265.2V133.63Z" fill="white"/>
<path d="M277.27 133.63H270.27V141.63H277.27V133.63Z" fill="white"/>
<path d="M253.13 145.92H246.13V153.92H253.13V145.92Z" fill="white"/>
<path d="M265.2 145.92H258.2V153.92H265.2V145.92Z" fill="white"/>
<path d="M277.27 145.92H270.27V153.92H277.27V145.92Z" fill="white"/>
<path d="M253.13 158.22H246.13V166.22H253.13V158.22Z" fill="white"/>
<path d="M265.2 158.22H258.2V166.22H265.2V158.22Z" fill="white"/>
<path d="M277.27 158.22H270.27V166.22H277.27V158.22Z" fill="white"/>
<path d="M253.13 170.5H246.13V178.5H253.13V170.5Z" fill="white"/>
<path d="M265.2 170.5H258.2V178.5H265.2V170.5Z" fill="white"/>
<path d="M277.27 170.5H270.27V178.5H277.27V170.5Z" fill="white"/>
<path d="M97.8 90.2202H57.67V96.2202H97.76L97.8 90.2202Z" fill="white"/>
<path d="M97.8 101.79H57.67V107.79H97.76L97.8 101.79Z" fill="white"/>
<path d="M97.8 113.39H57.67V119.39H97.76L97.8 113.39Z" fill="white"/>
<path d="M97.8 124.98H57.67V130.98H97.76L97.8 124.98Z" fill="white"/>
<path d="M97.8 136.58H57.67V142.58H97.76L97.8 136.58Z" fill="white"/>
<path d="M97.8 148.22H57.67V154.22H97.76L97.8 148.22Z" fill="white"/>
<path d="M97.8 159.78H57.67V165.78H97.76L97.8 159.78Z" fill="white"/>
<path d="M97.8 171.37H57.67V177.37H97.76L97.8 171.37Z" fill="white"/>
<path d="M386.43 80.02H349.57V86.02H386.43V80.02Z" fill="white"/>
<path d="M386.43 91.6201H349.57V97.6201H386.43V91.6201Z" fill="white"/>
<path d="M386.43 103.22H349.57V109.22H386.43V103.22Z" fill="white"/>
<path d="M386.43 114.81H349.57V120.81H386.43V114.81Z" fill="white"/>
<path d="M386.43 126.41H349.57V132.41H386.43V126.41Z" fill="white"/>
<path d="M386.43 138H349.57V144H386.43V138Z" fill="white"/>
<path d="M386.43 149.6H349.57V155.6H386.43V149.6Z" fill="white"/>
<path d="M386.43 161.22H349.57V167.22H386.43V161.22Z" fill="white"/>
<path d="M386.43 172.22H349.57V178.22H386.43V172.22Z" fill="white"/>
<path d="M386.43 183.22H349.57V189.22H386.43V183.22Z" fill="white"/>
<path d="M386.43 194.22H349.57V200.22H386.43V194.22Z" fill="white"/>
<path d="M386.43 205.28H349.57V211.28H386.43V205.28Z" fill="white"/>
<path d="M446.03 94.0303H407.09V100.03H446.03V94.0303Z" fill="white"/>
<path d="M446.03 105.63H407.09V111.63H446.03V105.63Z" fill="white"/>
<path d="M446.03 117.22H407.09V123.22H446.03V117.22Z" fill="white"/>
<path d="M446.03 128.82H407.09V134.82H446.03V128.82Z" fill="white"/>
<path d="M446.03 140.42H407.09V146.42H446.03V140.42Z" fill="white"/>
<path d="M446.03 152.02H407.09V158.02H446.03V152.02Z" fill="white"/>
<path d="M446.03 163.61H407.09V169.61H446.03V163.61Z" fill="white"/>
<path d="M446.03 175.22H407.09V181.22H446.03V175.22Z" fill="white"/>
<path d="M446.03 185.59H407.09V191.59H446.03V185.59Z" fill="white"/>
<path d="M446.03 195.97H407.09V201.97H446.03V195.97Z" fill="white"/>
<path d="M446.03 206.35H407.09V212.35H446.03V206.35Z" fill="white"/>
<path d="M211.38 71.3101H199V77.0801H211.38V71.3101Z" fill="white"/>
<path d="M211.38 82.5103H199V88.2903H211.38V82.5103Z" fill="white"/>
<path d="M211.38 93.7202H199V99.4902H211.38V93.7202Z" fill="white"/>
<path d="M211.38 104.92H199V110.69H211.38V104.92Z" fill="white"/>
<path d="M211.38 116.11H199V121.88H211.38V116.11Z" fill="white"/>
<path d="M211.38 127.31H199V133.08H211.38V127.31Z" fill="white"/>
<path d="M211.38 138.51H199V144.29H211.38V138.51Z" fill="white"/>
<path d="M211.38 149.71H199V155.49H211.38V149.71Z" fill="white"/>
<path d="M228.23 71.3101H215.85V77.0801H228.23V71.3101Z" fill="white"/>
<path d="M228.23 82.5103H215.85V88.2903H228.23V82.5103Z" fill="white"/>
<path d="M228.23 93.7202H215.85V99.4902H228.23V93.7202Z" fill="white"/>
<path d="M228.23 104.92H215.85V110.69H228.23V104.92Z" fill="white"/>
<path d="M228.23 116.11H215.85V121.88H228.23V116.11Z" fill="white"/>
<path d="M228.23 127.31H215.85V133.08H228.23V127.31Z" fill="white"/>
<path d="M228.23 138.51H215.85V144.29H228.23V138.51Z" fill="white"/>
<path d="M228.23 149.71H215.85V155.49H228.23V149.71Z" fill="white"/>
<path d="M130.83 29.7603H117.93V38.8603H130.83V29.7603Z" fill="white"/>
<path d="M150.06 29.7603H137.16V38.8603H150.06V29.7603Z" fill="white"/>
<path d="M130.83 43.1401H117.93V52.2201H130.83V43.1401Z" fill="white"/>
<path d="M150.06 43.1401H137.16V52.2201H150.06V43.1401Z" fill="white"/>
<path d="M130.83 56.5H117.93V65.6H130.83V56.5Z" fill="white"/>
<path d="M150.06 56.5H137.16V65.6H150.06V56.5Z" fill="white"/>
<path d="M130.83 69.8804H117.93V78.9804H130.83V69.8804Z" fill="white"/>
<path d="M150.06 69.8804H137.16V78.9804H150.06V69.8804Z" fill="white"/>
<path d="M130.83 83.2202H117.93V92.3202H130.83V83.2202Z" fill="white"/>
<path d="M150.06 83.2202H137.16V92.3202H150.06V83.2202Z" fill="white"/>
<path d="M130.83 96.6201H117.93V105.72H130.83V96.6201Z" fill="white"/>
<path d="M150.06 96.6201H137.16V105.72H150.06V96.6201Z" fill="white"/>
<path d="M130.83 110H117.93V119.1H130.83V110Z" fill="white"/>
<path d="M150.06 110H137.16V119.1H150.06V110Z" fill="white"/>
<path d="M130.83 123.36H117.93V132.46H130.83V123.36Z" fill="white"/>
<path d="M150.06 123.36H137.16V132.46H150.06V123.36Z" fill="white"/>
<path d="M173.89 56.5H161V65.6H173.89V56.5Z" fill="white"/>
<path d="M173.89 69.8804H161V78.9804H173.89V69.8804Z" fill="white"/>
<path d="M173.89 83.2202H161V92.3202H173.89V83.2202Z" fill="white"/>
<path d="M173.89 96.6201H161V105.72H173.89V96.6201Z" fill="white"/>
<path d="M173.89 110H161V119.1H173.89V110Z" fill="white"/>
<path d="M173.89 123.36H161V132.46H173.89V123.36Z" fill="white"/>
<path d="M130.83 136.58H117.93V145.68H130.83V136.58Z" fill="white"/>
<path d="M150.06 136.58H137.16V145.68H150.06V136.58Z" fill="white"/>
<path d="M173.89 136.58H161V145.68H173.89V136.58Z" fill="white"/>
<path d="M130.83 149.79H117.93V158.89H130.83V149.79Z" fill="white"/>
<path d="M150.06 149.79H137.16V158.89H150.06V149.79Z" fill="white"/>
<path d="M173.89 149.79H161V158.89H173.89V149.79Z" fill="white"/>
<path d="M130.83 163H117.93V172.1H130.83V163Z" fill="white"/>
<path d="M150.06 163H137.16V172.1H150.06V163Z" fill="white"/>
<path d="M173.89 163H161V172.1H173.89V163Z" fill="white"/>
<path d="M130.83 176.22H117.93V185.32H130.83V176.22Z" fill="white"/>
<path d="M150.06 176.22H137.16V185.32H150.06V176.22Z" fill="white"/>
<path d="M173.89 176.22H161V185.32H173.89V176.22Z" fill="white"/>
<path d="M130.83 189.43H117.93V198.52H130.83V189.43Z" fill="white"/>
<path d="M150.06 189.43H137.16V198.52H150.06V189.43Z" fill="white"/>
<path d="M173.89 189.43H161V198.52H173.89V189.43Z" fill="white"/>
<path d="M290.4 42.7603H283.4V50.7603H290.4V42.7603Z" fill="white"/>
<path d="M302.47 42.7603H295.47V50.7603H302.47V42.7603Z" fill="white"/>
<path d="M290.4 54.75H283.4V62.75H290.4V54.75Z" fill="white"/>
<path d="M302.47 54.75H295.47V62.75H302.47V54.75Z" fill="white"/>
<path d="M290.4 66.75H283.4V74.75H290.4V66.75Z" fill="white"/>
<path d="M302.47 66.75H295.47V74.75H302.47V66.75Z" fill="white"/>
<path d="M290.4 78.75H283.4V86.75H290.4V78.75Z" fill="white"/>
<path d="M302.47 78.75H295.47V86.75H302.47V78.75Z" fill="white"/>
<path d="M290.4 91.04H283.4V99.04H290.4V91.04Z" fill="white"/>
<path d="M302.47 91.04H295.47V99.04H302.47V91.04Z" fill="white"/>
<path d="M290.4 103.33H283.4V111.33H290.4V103.33Z" fill="white"/>
<path d="M302.47 103.33H295.47V111.33H302.47V103.33Z" fill="white"/>
<path d="M290.4 115.62H283.4V123.62H290.4V115.62Z" fill="white"/>
<path d="M302.47 115.62H295.47V123.62H302.47V115.62Z" fill="white"/>
<path d="M290.4 127.92H283.4V135.92H290.4V127.92Z" fill="white"/>
<path d="M302.47 127.92H295.47V135.92H302.47V127.92Z" fill="white"/>
<path d="M290.4 140.34H283.4V148.34H290.4V140.34Z" fill="white"/>
<path d="M302.47 140.34H295.47V148.34H302.47V140.34Z" fill="white"/>
<path d="M290.4 152.77H283.4V160.77H290.4V152.77Z" fill="white"/>
<path d="M302.47 152.77H295.47V160.77H302.47V152.77Z" fill="white"/>
<path d="M290.4 165.22H283.4V173.22H290.4V165.22Z" fill="white"/>
<path d="M302.47 165.22H295.47V173.22H302.47V165.22Z" fill="white"/>
<path d="M290.4 177.62H283.4V185.62H290.4V177.62Z" fill="white"/>
<path d="M302.47 177.62H295.47V185.62H302.47V177.62Z" fill="white"/>
<path d="M460.45 44.0503H453.45V53.4503H460.45V44.0503Z" fill="white"/>
<path d="M472.52 44.0503H465.52V53.4503H472.52V44.0503Z" fill="white"/>
<path d="M460.45 58.2202H453.45V67.6202H460.45V58.2202Z" fill="white"/>
<path d="M472.52 58.2202H465.52V67.6202H472.52V58.2202Z" fill="white"/>
<path d="M460.45 72.3203H453.45V81.7203H460.45V72.3203Z" fill="white"/>
<path d="M472.52 72.3203H465.52V81.7203H472.52V72.3203Z" fill="white"/>
<path d="M460.45 86.4502H453.45V95.8502H460.45V86.4502Z" fill="white"/>
<path d="M472.52 86.4502H465.52V95.8502H472.52V86.4502Z" fill="white"/>
<path d="M460.45 100.94H453.45V110.33H460.45V100.94Z" fill="white"/>
<path d="M472.52 100.94H465.52V110.33H472.52V100.94Z" fill="white"/>
<path d="M460.45 115.42H453.45V124.81H460.45V115.42Z" fill="white"/>
<path d="M472.52 115.42H465.52V124.81H472.52V115.42Z" fill="white"/>
<path d="M460.45 129.9H453.45V139.29H460.45V129.9Z" fill="white"/>
<path d="M472.52 129.9H465.52V139.29H472.52V129.9Z" fill="white"/>
<path d="M460.45 144.39H453.45V153.78H460.45V144.39Z" fill="white"/>
<path d="M472.52 144.39H465.52V153.78H472.52V144.39Z" fill="white"/>
<path d="M460.45 159.02H453.45V168.42H460.45V159.02Z" fill="white"/>
<path d="M472.52 159.02H465.52V168.42H472.52V159.02Z" fill="white"/>
<path d="M460.45 173.66H453.45V183.06H460.45V173.66Z" fill="white"/>
<path d="M472.52 173.66H465.52V183.06H472.52V173.66Z" fill="white"/>
<path d="M460.45 188.29H453.45V197.69H460.45V188.29Z" fill="white"/>
<path d="M472.52 188.29H465.52V197.69H472.52V188.29Z" fill="white"/>
<path d="M460.45 202.94H453.45V212.33H460.45V202.94Z" fill="white"/>
<path d="M472.52 202.94H465.52V212.33H472.52V202.94Z" fill="white"/>
<path d="M316.21 42.7603H309.21V50.7603H316.21V42.7603Z" fill="white"/>
<path d="M328.28 42.7603H321.28V50.7603H328.28V42.7603Z" fill="white"/>
<path d="M316.21 30.46H309.21V38.46H316.21V30.46Z" fill="white"/>
<path d="M328.28 30.46H321.28V38.46H328.28V30.46Z" fill="white"/>
<path d="M316.21 18.1602H309.21V26.1602H316.21V18.1602Z" fill="white"/>
<path d="M328.28 18.1602H321.28V26.1602H328.28V18.1602Z" fill="white"/>
<path d="M316.21 54.75H309.21V62.75H316.21V54.75Z" fill="white"/>
<path d="M328.28 54.75H321.28V62.75H328.28V54.75Z" fill="white"/>
<path d="M316.21 66.75H309.21V74.75H316.21V66.75Z" fill="white"/>
<path d="M328.28 66.75H321.28V74.75H328.28V66.75Z" fill="white"/>
<path d="M316.21 78.75H309.21V86.75H316.21V78.75Z" fill="white"/>
<path d="M328.28 78.75H321.28V86.75H328.28V78.75Z" fill="white"/>
<path d="M316.21 91.04H309.21V99.04H316.21V91.04Z" fill="white"/>
<path d="M328.28 91.04H321.28V99.04H328.28V91.04Z" fill="white"/>
<path d="M316.21 103.33H309.21V111.33H316.21V103.33Z" fill="white"/>
<path d="M328.28 103.33H321.28V111.33H328.28V103.33Z" fill="white"/>
<path d="M316.21 115.62H309.21V123.62H316.21V115.62Z" fill="white"/>
<path d="M328.28 115.62H321.28V123.62H328.28V115.62Z" fill="white"/>
<path d="M316.21 127.92H309.21V135.92H316.21V127.92Z" fill="white"/>
<path d="M328.28 127.92H321.28V135.92H328.28V127.92Z" fill="white"/>
<path d="M316.21 140.34H309.21V148.34H316.21V140.34Z" fill="white"/>
<path d="M328.28 140.34H321.28V148.34H328.28V140.34Z" fill="white"/>
<path d="M316.21 152.77H309.21V160.77H316.21V152.77Z" fill="white"/>
<path d="M328.28 152.77H321.28V160.77H328.28V152.77Z" fill="white"/>
<path d="M316.21 165.22H309.21V173.22H316.21V165.22Z" fill="white"/>
<path d="M328.28 165.22H321.28V173.22H328.28V165.22Z" fill="white"/>
<path d="M316.21 177.62H309.21V185.62H316.21V177.62Z" fill="white"/>
<path d="M328.28 177.62H321.28V185.62H328.28V177.62Z" fill="white"/>
<path d="M85.01 53.9801L15.27 53.8801C15.27 53.8801 18.74 49.3601 22.56 48.8101C22.56 48.8101 30.03 26.6801 42.46 26.5101C54.04 26.3901 58.67 40.1501 58.67 40.1501C58.67 40.1501 64.05 33.9901 69.17 36.8201C74.29 39.6501 77.17 47.7401 77.17 47.7401C77.17 47.7401 82.93 50.8801 85.01 53.9801Z" fill="#EBEBEB"/>
<path d="M400.76 7.58019C394.39 9.77019 390.57 21.9102 390.57 21.9102C390.57 21.9102 384 25.1102 382.99 28.2902L471.2 28.4302C471.2 28.4302 471.2 22.7902 459.06 21.6702C459.06 21.6702 448 -3.00981 431.06 0.310186" fill="#EBEBEB"/>
<path d="M431.06 0.310059C420.51 2.31006 415.06 16.7901 415.06 16.7901C415.06 16.7901 407.06 5.38006 400.73 7.58006" fill="#EBEBEB"/>
<path d="M201.61 3.07042C192.24 3.80042 187.23 16.9704 187.23 16.9704C187.23 16.9704 175.84 13.3804 169.01 25.2304L229.01 25.3104C229.01 25.3104 223.36 20.0304 220.84 20.0304C218.32 20.0304 210.99 2.34041 201.63 3.03041" fill="#EBEBEB"/>
<path d="M336.56 60.3403L387.84 60.4203C387.84 60.4203 385.3 57.0903 382.48 56.6803C382.48 56.6803 377.05 40.3903 367.89 40.2603C359.38 40.1403 355.95 50.2603 355.95 50.2603C355.95 50.2603 352.02 45.7103 348.25 47.7803C344.48 49.8503 342.33 55.7803 342.33 55.7803C342.33 55.7803 338.09 58.0703 336.56 60.3403Z" fill="#EBEBEB"/>
<path d="M77.22 249.27L66.44 250.84C66.54 224.54 66.6367 198.24 66.73 171.94H77.22V249.27Z" fill="#7B8589" stroke="#7B8589" stroke-miterlimit="10"/>
<path d="M119.89 63.9302H27.88C23.4617 63.9302 19.88 67.5119 19.88 71.9302V163.94C19.88 168.358 23.4617 171.94 27.88 171.94H119.89C124.308 171.94 127.89 168.358 127.89 163.94V71.9302C127.89 67.5119 124.308 63.9302 119.89 63.9302Z" fill="#AF87F5"/>
<path d="M77.6292 123.506H63.7795V144.637C63.7795 147.658 63.0667 149.949 61.641 151.511C60.2153 153.072 58.4162 153.853 56.2437 153.853C53.9693 153.853 52.1363 153.089 50.7445 151.562C49.3528 150 48.6569 147.726 48.6569 144.739V87.2014C48.6569 83.8748 49.4207 81.4986 50.9482 80.0729C52.4757 78.6472 54.9028 77.9343 58.2295 77.9343H77.6292C83.366 77.9343 87.7789 78.3756 90.8679 79.2582C93.923 80.1068 96.5537 81.5156 98.7602 83.4844C101.001 85.4532 102.698 87.8633 103.852 90.7147C105.006 93.5662 105.583 96.774 105.583 100.338C105.583 107.942 103.241 113.713 98.5565 117.65C93.872 121.554 86.8963 123.506 77.6292 123.506ZM73.9631 89.289H63.7795V112.1H73.9631C77.5274 112.1 80.4976 111.727 82.8738 110.98C85.2839 110.233 87.1169 109.011 88.3729 107.314C89.6289 105.617 90.2569 103.393 90.2569 100.644C90.2569 97.3511 89.2894 94.6694 87.3545 92.5987C85.182 90.3923 80.7182 89.289 73.9631 89.289Z" fill="white"/>
<path d="M281.67 316.32V226.44H252.67C240.14 226.44 229.98 246.56 229.98 271.38C229.98 296.2 240.12 316.32 252.67 316.32H281.67Z" fill="#263238"/>
<path d="M281.86 316.32C294.391 316.32 304.55 296.2 304.55 271.38C304.55 246.561 294.391 226.44 281.86 226.44C269.329 226.44 259.17 246.561 259.17 271.38C259.17 296.2 269.329 316.32 281.86 316.32Z" fill="#263238"/>
<path d="M115.39 316.32V226.44H86.28C73.71 226.44 63.6 246.56 63.6 271.38C63.6 296.2 73.75 316.32 86.28 316.32H115.39Z" fill="#263238"/>
<path d="M115.5 316.32C128.031 316.32 138.19 296.2 138.19 271.38C138.19 246.561 128.031 226.44 115.5 226.44C102.969 226.44 92.81 246.561 92.81 271.38C92.81 296.2 102.969 316.32 115.5 316.32Z" fill="#263238"/>
<path d="M376.89 211.16L416.97 214.02L428.08 217.3C431.633 218.351 434.791 220.441 437.147 223.301C439.503 226.162 440.949 229.661 441.3 233.35L443.4 255.35C443.681 258.258 443.272 261.191 442.205 263.911C441.138 266.63 439.443 269.059 437.26 271L433.44 274.4C431.656 275.992 430.193 277.909 429.13 280.05C427.936 282.48 426.222 284.619 424.111 286.314C421.999 288.009 419.541 289.22 416.91 289.86L401.37 293.69L376.89 211.16Z" fill="#673AB7"/>
<path d="M396.58 316.32V226.44H367.48C354.95 226.44 344.79 246.56 344.79 271.38C344.79 296.2 354.95 316.32 367.48 316.32H396.58Z" fill="#263238"/>
<path d="M396.69 316.32C409.221 316.32 419.38 296.2 419.38 271.38C419.38 246.561 409.221 226.44 396.69 226.44C384.159 226.44 374 246.561 374 271.38C374 296.2 384.159 316.32 396.69 316.32Z" fill="#263238"/>
<path d="M396.69 306.9C405.482 306.9 412.61 290.998 412.61 271.38C412.61 251.763 405.482 235.86 396.69 235.86C387.898 235.86 380.77 251.763 380.77 271.38C380.77 290.998 387.898 306.9 396.69 306.9Z" fill="#673AB7"/>
<path d="M166.46 293.69H355.35C356.474 293.693 357.57 293.346 358.488 292.698C359.405 292.049 360.098 291.131 360.47 290.07C365.47 276.07 368.09 226.44 399.42 226.44L417.03 214.02C376.69 178.74 380.83 162.49 260.28 162.49C185.9 162.49 127.28 206.13 127.28 206.13L166.46 293.69Z" fill="#673AB7"/>
<path d="M230.22 316.32V226.44H201.11C188.58 226.44 178.43 246.56 178.43 271.38C178.43 296.2 188.58 316.32 201.11 316.32H230.22Z" fill="#263238"/>
<path d="M230.33 316.32C242.861 316.32 253.02 296.2 253.02 271.38C253.02 246.561 242.861 226.44 230.33 226.44C217.799 226.44 207.64 246.561 207.64 271.38C207.64 296.2 217.799 316.32 230.33 316.32Z" fill="#263238"/>
<path d="M230.33 306.9C239.122 306.9 246.25 290.998 246.25 271.38C246.25 251.763 239.122 235.86 230.33 235.86C221.538 235.86 214.41 251.763 214.41 271.38C214.41 290.998 221.538 306.9 230.33 306.9Z" fill="#673AB7"/>
<path d="M179.67 293.95C157.33 293.88 95.97 293.69 45.27 293.69C39.27 293.69 34.45 288.99 34.98 283.53C37.54 256.78 39.73 238.47 57.54 226.41C79.54 211.48 118.54 206.1 127.26 206.1H253.82L231.4 226.46C210.71 226.46 193.45 270.06 189.84 286.46C188.87 290.85 184.67 294 179.67 293.95Z" fill="#673AB7"/>
<path opacity="0.8" d="M265.95 167.13C254.04 173.66 237.79 187.44 228.61 201.04C227.535 202.618 226.09 203.907 224.4 204.794C222.71 205.682 220.829 206.141 218.92 206.13H136.43C136.43 206.13 182.55 167.13 265.95 167.13Z" fill="white"/>
<path opacity="0.8" d="M280.46 167.13C289.56 167.13 306.02 167.13 313.08 167.72C387.99 170.4 392.75 206.12 378.41 206.12H243.22C242.615 206.113 242.022 205.947 241.5 205.64C240.693 205.172 240.104 204.402 239.864 203.5C239.624 202.598 239.752 201.638 240.22 200.83C246.61 189.68 257.99 178.46 267.99 171.22C271.615 168.582 275.977 167.151 280.46 167.13Z" fill="white"/>
<path d="M175.75 274.22C176.104 274.224 176.453 274.298 176.778 274.438C177.103 274.577 177.397 274.78 177.643 275.033C177.89 275.287 178.084 275.587 178.213 275.916C178.343 276.245 178.407 276.597 178.4 276.95V283.22C178.4 283.573 178.33 283.922 178.195 284.248C178.06 284.574 177.861 284.87 177.612 285.119C177.362 285.368 177.065 285.565 176.739 285.699C176.412 285.833 176.063 285.902 175.71 285.9H132.41C131.699 285.9 131.018 285.618 130.515 285.115C130.012 284.613 129.73 283.931 129.73 283.22V280.22C129.728 279.543 129.983 278.89 130.443 278.393C130.903 277.895 131.534 277.591 132.21 277.54L175.54 274.22H175.75Z" fill="#263238"/>
<path d="M37.57 274.78C36.8593 274.696 36.144 274.897 35.5815 275.339C35.0189 275.782 34.6551 276.43 34.57 277.14L33.9 282.78C33.89 282.89 33.89 283 33.9 283.11C33.9 283.462 33.9694 283.81 34.1042 284.134C34.239 284.459 34.4366 284.754 34.6856 285.002C34.9346 285.25 35.2301 285.446 35.5552 285.58C35.8803 285.713 36.2285 285.781 36.58 285.78H49.19C49.9008 285.78 50.5825 285.498 51.0851 284.995C51.5877 284.493 51.87 283.811 51.87 283.1V279.85C51.8685 279.224 51.6475 278.618 51.2456 278.137C50.8437 277.657 50.2863 277.332 49.67 277.22L37.77 274.82L37.57 274.78Z" fill="#263238"/>
<path opacity="0.8" d="M178.58 233.86C201 231.58 200.38 220.86 200.38 220.86L139.88 223.8C151.216 231.556 164.902 235.114 178.58 233.86Z" fill="white"/>
<path opacity="0.3" d="M442.2 242.72C442.039 242.771 441.876 242.811 441.71 242.84C435.77 243.84 435.96 228.1 435.96 228.1L440.06 228.22C440.724 229.857 441.145 231.582 441.31 233.34L442.2 242.72Z" fill="black"/>
<path opacity="0.8" d="M75.38 223.8C75.38 223.8 65.67 236.22 52.19 233.89C51.324 233.741 50.4662 233.547 49.62 233.31C51.9949 230.698 54.6817 228.387 57.62 226.43C59.55 225.13 61.53 223.94 63.57 222.84L75.38 223.8Z" fill="white"/>
<path d="M126.24 243.14L128.38 245.89C129.159 246.922 129.624 248.156 129.72 249.446C129.815 250.735 129.538 252.024 128.92 253.16L120.37 269.83C119.746 271.048 118.802 272.073 117.639 272.796C116.476 273.518 115.139 273.91 113.77 273.93H67.99C67.6351 273.933 67.2805 273.906 66.93 273.85C65.2578 273.591 63.7569 272.679 62.7573 271.314C61.7577 269.949 61.3414 268.242 61.6 266.57L63.51 252.4C63.6584 251.377 64.0154 250.396 64.5591 249.517C65.1027 248.638 65.8212 247.88 66.67 247.29L74.15 242.04C75.3786 241.179 76.8398 240.712 78.34 240.7H121.15C122.129 240.69 123.097 240.905 123.979 241.328C124.862 241.751 125.635 242.371 126.24 243.14Z" fill="#263238"/>
<path opacity="0.1" d="M348.82 277.08L349.25 281.96C349.255 282.02 349.255 282.08 349.25 282.14C349.25 282.671 349.039 283.179 348.664 283.554C348.289 283.93 347.78 284.14 347.25 284.14H263.52C263.019 284.142 262.536 283.956 262.166 283.62C261.796 283.283 261.565 282.819 261.52 282.32L261.09 277.45V277.22C261.09 276.69 261.301 276.181 261.676 275.806C262.051 275.431 262.56 275.22 263.09 275.22H346.81C347.319 275.216 347.81 275.407 348.183 275.752C348.557 276.098 348.784 276.573 348.82 277.08Z" fill="black"/>
<path d="M330.16 211.16H325.36L315.11 166.16L320.12 167.13L330.16 211.16Z" fill="#673AB7"/>
<path d="M302.28 218.02C302.537 218.957 303.083 219.788 303.841 220.396C304.599 221.003 305.53 221.354 306.5 221.4H316.87C317.192 221.418 317.515 221.374 317.82 221.27C318.139 221.162 318.433 220.992 318.686 220.77C318.938 220.548 319.145 220.279 319.294 219.977C319.442 219.675 319.53 219.347 319.552 219.011C319.573 218.675 319.529 218.339 319.42 218.02L318.98 216.22H301.83L302.28 218.02Z" fill="#263238"/>
<path d="M361.26 218.02C361.517 218.957 362.063 219.788 362.821 220.396C363.579 221.003 364.51 221.354 365.48 221.4H375.85C376.172 221.418 376.495 221.374 376.8 221.27C377.119 221.162 377.413 220.992 377.666 220.77C377.918 220.548 378.125 220.279 378.274 219.977C378.422 219.675 378.51 219.347 378.532 219.011C378.553 218.675 378.509 218.339 378.4 218.02L377.96 216.22H360.82L361.26 218.02Z" fill="#263238"/>
<path opacity="0.1" d="M327.27 269.45C327.12 269.445 326.977 269.382 326.873 269.274C326.768 269.165 326.71 269.021 326.71 268.87L327.95 209.94C327.953 209.791 328.014 209.649 328.12 209.544C328.227 209.439 328.371 209.38 328.52 209.38C328.671 209.388 328.814 209.454 328.918 209.563C329.022 209.673 329.08 209.819 329.08 209.97L327.82 268.89C327.82 268.965 327.805 269.038 327.776 269.107C327.748 269.176 327.706 269.238 327.652 269.29C327.599 269.342 327.536 269.383 327.467 269.411C327.398 269.438 327.324 269.452 327.25 269.45H327.27Z" fill="black"/>
<path d="M291.45 308.86L297.36 308.78L295.62 322.48L289.71 322.55L291.45 308.86Z" fill="#FF8B7B"/>
<path d="M321.69 309.8L327.1 306.8L331.09 319.52L325.68 322.52L321.69 309.8Z" fill="#FF8B7B"/>
<path d="M332.67 318.67C334.55 319.09 338.22 318.61 342.67 317.24C343.67 316.93 344.57 319.24 342.42 320.45C340.27 321.66 335.42 324.16 333.9 325.03C331.35 326.46 329.95 327.42 327.95 328.58C327.887 328.618 327.82 328.649 327.75 328.67C327.533 328.736 327.298 328.713 327.098 328.606C326.897 328.499 326.747 328.317 326.68 328.1L325.11 322.95C325.075 322.839 325.08 322.72 325.124 322.612C325.168 322.504 325.248 322.415 325.35 322.36L331.62 318.82C331.939 318.641 332.314 318.588 332.67 318.67Z" fill="#263238"/>
<path d="M297.13 322.22C301.13 324.62 304.93 324.7 309.56 325.65C310.56 325.86 309.98 328.36 307.56 328.35C303.56 328.43 300.56 328.28 297.17 328.35C294.25 328.35 290.89 328.57 288.56 328.64H288.38C288.269 328.621 288.163 328.58 288.068 328.519C287.973 328.458 287.891 328.378 287.828 328.285C287.764 328.191 287.72 328.086 287.698 327.975C287.676 327.865 287.677 327.751 287.7 327.64L288.79 322.38C288.815 322.264 288.88 322.16 288.972 322.085C289.065 322.01 289.181 321.97 289.3 321.97L295.75 321.89C296.231 321.88 296.706 321.994 297.13 322.22Z" fill="#263238"/>
<path d="M304.79 142.34C307.99 144.83 311.36 147.34 314.69 149.71C316.32 150.9 318 152.07 319.69 153.08C321.249 154.086 322.888 154.962 324.59 155.7C325.066 155.909 325.562 156.07 326.07 156.18C326.07 156.18 326.07 156.18 326.07 156.25C326.07 156.32 326.13 156.33 326.25 156.25C326.654 155.869 326.966 155.401 327.16 154.88C327.503 154.107 327.77 153.304 327.96 152.48C328.764 148.592 329.166 144.631 329.16 140.66L333.55 140.06C334.689 144.474 335.111 149.042 334.8 153.59C334.683 154.862 334.448 156.121 334.1 157.35C333.667 158.873 332.917 160.287 331.9 161.5C331.245 162.265 330.451 162.9 329.56 163.37C328.627 163.853 327.607 164.146 326.56 164.23C326.084 164.27 325.606 164.27 325.13 164.23C324.71 164.18 324.27 164.13 323.89 164.06C323.194 163.928 322.506 163.754 321.83 163.54C319.57 162.761 317.387 161.773 315.31 160.59C313.31 159.5 311.45 158.31 309.62 157.12C305.965 154.712 302.44 152.112 299.06 149.33L304.79 142.34Z" fill="#FF8B7B"/>
<path d="M301.34 138.34C306.98 139.34 315.99 148.15 320.34 152.16C321.54 153.28 323.01 152.3 323.01 153.96C323.01 155.62 318.55 163.74 318.55 163.74C317.55 164.74 317.76 162.44 316.06 161.66C310.32 158.99 299.97 152.66 297.3 146.6C294.76 140.93 293.97 137.02 301.34 138.34Z" fill="#673AB7"/>
<path d="M318.37 164.01C318.91 164.78 321.76 165.16 322.76 165.01C324.66 164.74 323.45 162.89 324.08 161.15C324.71 159.41 326.77 156.08 326.02 155.15C325.27 154.22 322.92 152.02 322.35 152.86C320.97 154.89 317.08 162.35 318.37 164.01Z" fill="#E71D36"/>
<path opacity="0.2" d="M296.81 144.82L296.91 145.82C297.01 146.08 297.14 146.33 297.25 146.6C298.99 150.54 303.94 154.6 308.77 157.6C307.82 152.61 303.38 145.96 296.81 144.82Z" fill="black"/>
<path d="M333.4 141.8C335.93 138.32 332.4 134.31 332.4 134.31L326.17 136.83L329.96 142.49L333.4 141.8Z" fill="#FF8B7B"/>
<path d="M326.19 136.78L332.42 134.26L330.33 130.51L324.61 130.69L326.19 136.78Z" fill="#FF8B7B"/>
<path opacity="0.2" d="M291.45 308.87L290.55 315.92L296.46 315.84L297.36 308.78L291.45 308.87Z" fill="black"/>
<path opacity="0.2" d="M323.75 316.36L329.15 313.37L327.1 306.8L321.69 309.8L323.75 316.36Z" fill="black"/>
<path d="M274.03 139.06C274.74 138.92 275.43 138.79 276.26 138.66C277.09 138.53 277.94 138.4 278.78 138.31C283.227 137.717 287.704 137.383 292.19 137.31C292.74 137.31 293.28 137.37 293.82 137.37C294.82 137.42 295.72 137.51 296.58 137.6C299.35 137.89 301.35 138.28 301.35 138.28C301.35 138.28 308.44 155.45 305.35 189.19C295.85 189.87 278.47 191.12 273.84 191.43C273.28 186.61 274.64 162.8 268.34 140.35C268.33 140.39 270.82 139.69 274.03 139.06Z" fill="#673AB7"/>
<path d="M278.78 138.33C280.25 140.75 285.33 144.33 290.46 144.19C295.59 144.05 294.83 138.8 292.19 137.38L278.78 138.33Z" fill="#E71D36"/>
<path opacity="0.2" d="M271.39 154.67C271.93 158.06 272.33 161.38 272.64 164.55C274.91 162.11 275.58 152.21 275.03 150.04L271.39 154.67Z" fill="black"/>
<path d="M289.23 129.88C288.1 133.15 287.58 136.69 292.23 138.31C293.39 140.31 293.74 142.9 288.65 142.21C287.65 142.08 286.19 141.86 282.13 139.99C280.7 139.33 279.54 138.74 278.74 138.33C281.565 133.415 282.604 127.674 281.68 122.08L289.23 129.88Z" fill="#FF8B7B"/>
<path opacity="0.2" d="M282.67 128.08C283 129.95 285.67 131.83 287.52 131.96C287.538 131.151 287.622 130.345 287.77 129.55L282.6 125.75C282.488 126.525 282.512 127.313 282.67 128.08Z" fill="black"/>
<path d="M294.97 112.48C296.02 116.48 292.38 121.54 292.38 121.54C285.41 113.6 293.67 107.38 294.97 112.48Z" fill="#263238"/>
<path d="M279.67 111.56C280.178 110.64 280.861 109.829 281.682 109.173C282.503 108.518 283.445 108.03 284.455 107.739C285.464 107.447 286.521 107.357 287.565 107.474C288.609 107.591 289.62 107.912 290.54 108.42C295.98 111.36 295.79 120.09 293.95 125.17C291.9 130.89 284.43 132.71 280.52 127.72C277.95 124.44 278.39 121.02 278.68 115.17C278.72 113.905 279.059 112.668 279.67 111.56Z" fill="#FF8B7B"/>
<path d="M280.23 117.34L283 121.07C281.482 121.717 279.885 122.161 278.25 122.39C276.9 122.56 274.47 116.39 272.45 114.88C270.43 113.37 272.08 110.31 274.89 109.88C272.32 105.68 285.26 103.88 288.18 105.99C288.84 104.99 293.45 101.17 295.18 108.47C296.42 113.68 286.18 112.52 282.57 111.47C283.61 114.15 280.23 117.34 280.23 117.34Z" fill="#263238"/>
<path d="M275.42 122.44C275.231 121.802 275.302 121.115 275.619 120.53C275.936 119.945 276.472 119.51 277.11 119.32C278.95 118.82 280.77 120.8 281.43 122.32C282.18 124.02 281.43 125.8 279.52 125.52C278.8 125.411 278.108 125.16 277.486 124.782C276.863 124.405 276.32 123.908 275.89 123.32C275.671 123.065 275.511 122.764 275.42 122.44Z" fill="#FF8B7B"/>
<path d="M311.72 254.94C311.97 236.94 305.34 189.28 305.34 189.28L284.67 190.75C284.67 190.75 286.18 197.24 287.87 206.75C290.24 220.11 291.13 224.32 292.97 234.9C294.42 243.28 293.5 251.1 293.75 256.69C294.6 275.07 288.75 314.57 288.75 314.57L298.75 314.45C298.75 314.45 311.45 273.63 311.72 254.94Z" fill="#58585D"/>
<path opacity="0.6" d="M311.72 254.94C311.97 236.94 305.34 189.28 305.34 189.28L284.67 190.75C284.67 190.75 286.18 197.24 287.87 206.75C290.24 220.11 291.13 224.32 292.97 234.9C294.42 243.28 293.5 251.1 293.75 256.69C294.6 275.07 288.75 314.57 288.75 314.57L298.75 314.45C298.75 314.45 311.45 273.63 311.72 254.94Z" fill="black"/>
<path opacity="0.2" d="M311.67 254.89C311.55 263.89 308.52 278.05 305.41 290.28C302.62 279.82 299.75 268.93 297.94 261.75C296.94 257.65 295.42 253.04 293.72 248.17C293.849 243.734 293.571 239.296 292.89 234.91L311.67 254.89Z" fill="black"/>
<path d="M273.83 191.52C274.65 206.97 293.63 238.44 300.5 258.34C306.5 275.81 321.05 315.72 321.05 315.72L330.48 310.42C330.48 310.42 320.65 262.02 314.53 244.08C308.94 227.67 294.17 190.02 294.17 190.02L273.83 191.52Z" fill="#58585D"/>
<path opacity="0.6" d="M273.83 191.52C274.65 206.97 293.63 238.44 300.5 258.34C306.5 275.81 321.05 315.72 321.05 315.72L330.48 310.42C330.48 310.42 320.65 262.02 314.53 244.08C308.94 227.67 294.17 190.02 294.17 190.02L273.83 191.52Z" fill="black"/>
<path d="M331.04 305.69L318.75 312.89L320.62 316.2L331.72 309.95L331.04 305.69Z" fill="#263238"/>
<path d="M301.27 310.6L287.95 310.98L288 314.83L299.92 314.67L301.27 310.6Z" fill="#263238"/>
<path d="M286.34 116.77C286.65 116.77 286.92 117.12 286.96 117.59C287 118.06 286.77 118.47 286.46 118.49C286.15 118.51 285.83 118.15 285.84 117.67C285.85 117.19 286.03 116.79 286.34 116.77Z" fill="#263238"/>
<path d="M292.67 116.39C292.98 116.39 293.25 116.74 293.29 117.21C293.33 117.68 293.09 118.09 292.78 118.11C292.47 118.13 292.16 117.77 292.17 117.29C292.18 116.81 292.35 116.41 292.67 116.39Z" fill="#263238"/>
<path d="M290.05 121.14C290.444 121.213 290.849 121.198 291.236 121.096C291.624 120.994 291.983 120.808 292.29 120.55C291.26 119.375 290.398 118.062 289.73 116.65L290.05 121.14Z" fill="#FF5652"/>
<path d="M291.81 125.22C291.827 125.219 291.843 125.214 291.858 125.207C291.873 125.199 291.886 125.188 291.896 125.175C291.906 125.161 291.914 125.146 291.918 125.13C291.922 125.114 291.923 125.097 291.92 125.08C291.919 125.062 291.914 125.044 291.906 125.027C291.897 125.011 291.886 124.996 291.872 124.984C291.858 124.972 291.842 124.963 291.824 124.957C291.807 124.951 291.788 124.949 291.77 124.95C291.181 125.002 290.588 124.916 290.037 124.699C289.487 124.482 288.995 124.14 288.6 123.7C288.574 123.676 288.54 123.663 288.505 123.663C288.47 123.663 288.436 123.676 288.41 123.7C288.395 123.712 288.384 123.728 288.375 123.745C288.367 123.762 288.363 123.781 288.363 123.8C288.363 123.819 288.367 123.838 288.375 123.855C288.384 123.873 288.395 123.888 288.41 123.9C288.756 124.308 289.182 124.639 289.662 124.873C290.143 125.107 290.666 125.239 291.2 125.26C291.404 125.258 291.608 125.245 291.81 125.22Z" fill="#263238"/>
<path d="M285.1 115.97C285.281 115.671 285.531 115.419 285.828 115.235C286.125 115.051 286.462 114.94 286.81 114.91C286.847 114.912 286.884 114.905 286.919 114.892C286.953 114.878 286.985 114.858 287.011 114.831C287.037 114.805 287.058 114.774 287.072 114.739C287.085 114.704 287.091 114.667 287.09 114.63C287.087 114.56 287.058 114.494 287.007 114.446C286.957 114.397 286.89 114.37 286.82 114.37C286.377 114.399 285.948 114.533 285.567 114.761C285.186 114.989 284.865 115.304 284.63 115.68C284.61 115.71 284.596 115.744 284.589 115.779C284.582 115.815 284.582 115.852 284.589 115.887C284.597 115.923 284.611 115.956 284.632 115.986C284.653 116.016 284.679 116.041 284.71 116.06H284.84C284.887 116.07 284.937 116.067 284.982 116.051C285.028 116.035 285.069 116.007 285.1 115.97Z" fill="#263238"/>
<path d="M294.67 115.11C294.697 115.084 294.718 115.053 294.732 115.019C294.747 114.984 294.754 114.947 294.754 114.91C294.754 114.873 294.747 114.836 294.732 114.802C294.718 114.767 294.697 114.736 294.67 114.71C294.389 114.371 294.031 114.103 293.626 113.929C293.221 113.755 292.78 113.68 292.34 113.71C292.303 113.715 292.268 113.727 292.236 113.746C292.205 113.765 292.177 113.79 292.156 113.82C292.134 113.85 292.119 113.884 292.111 113.92C292.103 113.956 292.103 113.994 292.11 114.03C292.12 114.103 292.158 114.168 292.216 114.213C292.274 114.258 292.347 114.279 292.42 114.27C292.769 114.25 293.118 114.313 293.437 114.454C293.757 114.595 294.039 114.809 294.26 115.08C294.291 115.114 294.33 115.141 294.374 115.159C294.417 115.176 294.464 115.183 294.51 115.18C294.569 115.174 294.626 115.15 294.67 115.11Z" fill="#263238"/>
<path d="M334.67 317.97C334.72 317.841 334.735 317.702 334.716 317.566C334.697 317.429 334.643 317.3 334.56 317.19C334.52 317.12 334.461 317.062 334.391 317.021C334.321 316.981 334.241 316.96 334.16 316.96C333.42 316.96 332.33 318.96 332.21 319.17C332.195 319.194 332.187 319.222 332.187 319.25C332.187 319.278 332.195 319.306 332.21 319.33C332.23 319.345 332.255 319.353 332.28 319.353C332.305 319.353 332.33 319.345 332.35 319.33C332.856 319.203 333.343 319.011 333.8 318.76C334.168 318.598 334.474 318.321 334.67 317.97ZM332.61 318.97C333.07 318.2 333.77 317.23 334.15 317.21C334.183 317.21 334.216 317.22 334.244 317.237C334.272 317.255 334.295 317.28 334.31 317.31C334.367 317.387 334.404 317.476 334.418 317.57C334.431 317.664 334.422 317.76 334.39 317.85C334.24 318.24 333.62 318.65 332.61 318.97Z" fill="#E71D36"/>
<path d="M332.44 319.22C332.78 318.63 333.21 316.93 332.78 316.41C332.71 316.332 332.616 316.28 332.512 316.262C332.409 316.244 332.303 316.261 332.21 316.31C332.109 316.351 332.019 316.413 331.944 316.493C331.87 316.572 331.814 316.667 331.78 316.77C331.46 317.59 332.2 319.14 332.2 319.21C332.21 319.234 332.227 319.254 332.248 319.268C332.269 319.282 332.294 319.29 332.32 319.29H332.39C332.39 319.29 332.44 319.28 332.44 319.22ZM332.32 316.62C332.49 316.52 332.56 316.62 332.56 316.62C332.82 316.92 332.65 318.14 332.34 318.84C332.048 318.235 331.943 317.555 332.04 316.89C332.078 316.776 332.156 316.68 332.26 316.62H332.32Z" fill="#E71D36"/>
<path d="M296.35 322.61C297.3 322.78 299 323 299.64 322.42C299.732 322.332 299.804 322.224 299.849 322.105C299.894 321.985 299.911 321.857 299.9 321.73C299.892 321.654 299.866 321.581 299.824 321.517C299.782 321.452 299.726 321.399 299.66 321.36C298.94 320.97 296.57 322.2 296.31 322.36C296.285 322.373 296.264 322.393 296.252 322.418C296.239 322.444 296.235 322.472 296.24 322.5C296.243 322.525 296.253 322.549 296.269 322.569C296.285 322.588 296.306 322.603 296.33 322.61H296.35ZM299.53 321.61C299.556 321.626 299.578 321.648 299.593 321.674C299.609 321.7 299.618 321.73 299.62 321.76C299.63 321.843 299.62 321.928 299.59 322.006C299.561 322.084 299.512 322.154 299.45 322.21C298.622 322.592 297.684 322.66 296.81 322.4C297.622 321.919 298.538 321.641 299.48 321.59L299.53 321.61Z" fill="#E71D36"/>
<path d="M296.45 322.61C297.18 322.31 298.58 320.99 298.45 320.32C298.45 320.16 298.31 319.94 297.93 319.93C297.651 319.909 297.374 319.999 297.16 320.18C296.631 320.833 296.317 321.632 296.26 322.47C296.259 322.495 296.264 322.52 296.275 322.542C296.285 322.565 296.301 322.585 296.32 322.6C296.34 322.61 296.362 322.616 296.384 322.618C296.406 322.62 296.429 322.617 296.45 322.61ZM298.15 320.38C298.22 320.78 297.28 321.79 296.55 322.24C296.607 321.563 296.872 320.92 297.31 320.4C297.387 320.334 297.476 320.285 297.572 320.254C297.668 320.223 297.769 320.211 297.87 320.22H298.02C298.057 320.227 298.09 320.247 298.114 320.276C298.138 320.306 298.151 320.342 298.15 320.38Z" fill="#E71D36"/>
<path d="M274.82 148.15C273.72 150.4 272.57 152.76 271.45 155.08C270.33 157.4 269.21 159.76 268.19 162.08C267.17 164.4 266.19 166.72 265.27 169.08L264.62 170.82L264.02 172.56C263.82 173.14 263.68 173.71 263.5 174.28L263.37 174.7L263.31 174.96C263.247 175.164 263.213 175.377 263.21 175.59C263.097 176.703 263.063 177.823 263.11 178.94C263.11 180.15 263.23 181.39 263.35 182.64C263.57 185.16 263.91 187.71 264.27 190.26C265.01 195.38 265.86 200.57 266.73 205.69L262.46 206.86C260.602 201.832 259.004 196.712 257.67 191.52C257.01 188.92 256.42 186.29 255.94 183.59C255.7 182.24 255.51 180.87 255.35 179.45C255.17 177.947 255.11 176.433 255.17 174.92C255.17 174.47 255.24 174.03 255.31 173.6L255.42 172.88L255.54 172.34C255.7 171.65 255.85 170.93 256.03 170.25L256.57 168.25L257.19 166.25C258.05 163.58 258.98 161.08 260 158.58C261.02 156.08 262.05 153.58 263.22 151.18C264.39 148.78 265.51 146.37 266.82 143.95L274.82 148.15Z" fill="#FF8B7B"/>
<path d="M276.44 150.08C274.71 155.16 271.14 161.53 266.6 170.08C267.35 171.08 266.1 173.2 264.1 174.19L255.48 170.36C255.48 170.36 254.77 168.04 256.19 166.77C258.43 159.3 264.09 141.77 268.34 140.43C274.86 138.33 278.99 142.55 276.44 150.08Z" fill="#673AB7"/>
<path d="M254.8 168.78C254.11 169.37 253.89 172.23 254.1 173.23C254.47 175.11 256.24 173.78 258.03 174.31C259.82 174.84 262.68 176.93 263.54 176.13C264.4 175.33 267.08 172.6 266.21 172.08C264.12 170.83 256.44 167.4 254.8 168.78Z" fill="#E71D36"/>
<path d="M262.41 204.74C260.71 207.11 264.47 211.12 264.47 211.12L270.22 207L265.62 203.15L262.41 204.74Z" fill="#FF8B7B"/>
<path d="M270.21 207L264.46 211.13L267.14 215.12L272.83 212.38L270.21 207Z" fill="#FF8B7B"/>
<path d="M324.67 128.86H331.29L332.58 141.41L325.95 142.2" fill="#263238"/>
<path d="M339.07 82.6C341.47 86.74 340.79 91.02 340.39 93.6C339.703 97.3988 338.092 100.97 335.7 104C333.299 107.345 330.261 110.183 326.76 112.35C322.555 109.633 319.044 105.968 316.51 101.65C315.187 99.4867 314.224 97.1225 313.66 94.65C313.11 92.09 312.27 88.19 314.02 84.13C315.044 81.7405 316.714 79.6834 318.841 78.1892C320.969 76.695 323.47 75.8227 326.066 75.6701C328.661 75.5175 331.248 76.0906 333.536 77.3252C335.824 78.5597 337.723 80.407 339.02 82.66L339.07 82.6ZM333.28 89.77C333.235 88.5071 332.819 87.2853 332.085 86.257C331.35 85.2286 330.329 84.4391 329.149 83.9867C327.969 83.5344 326.682 83.4392 325.449 83.713C324.215 83.9869 323.089 84.6177 322.211 85.5268C321.333 86.436 320.742 87.5833 320.512 88.8258C320.282 90.0684 320.422 91.3513 320.915 92.5147C321.409 93.6781 322.234 94.6706 323.287 95.3686C324.341 96.0666 325.576 96.4392 326.84 96.44C328.577 96.4058 330.23 95.6848 331.437 94.4348C332.644 93.1847 333.307 91.5074 333.28 89.77Z" fill="#673AB7"/>
<path d="M326.84 83.0898C328.17 83.0419 329.485 83.3927 330.614 84.097C331.744 84.8014 332.637 85.8271 333.18 87.0428C333.723 88.2584 333.89 89.6084 333.66 90.9196C333.43 92.2308 332.813 93.4434 331.889 94.4017C330.965 95.3601 329.776 96.0206 328.474 96.2984C327.172 96.5762 325.817 96.4587 324.582 95.9609C323.348 95.4631 322.29 94.6078 321.545 93.5047C320.799 92.4016 320.401 91.101 320.4 89.7698C320.371 88.0306 321.032 86.3508 322.239 85.0986C323.446 83.8463 325.101 83.1239 326.84 83.0898Z" fill="white"/>
<path d="M333.28 89.7699C333.233 91.0323 332.816 92.253 332.08 93.28C331.344 94.307 330.323 95.095 329.143 95.5458C327.963 95.9966 326.676 96.0904 325.443 95.8155C324.21 95.5406 323.085 94.909 322.208 93.9996C321.331 93.0901 320.741 91.9428 320.512 90.7006C320.282 89.4583 320.423 88.176 320.917 87.0131C321.41 85.8503 322.235 84.8583 323.288 84.1607C324.342 83.4631 325.577 83.0907 326.84 83.0898C327.702 83.1055 328.552 83.2906 329.341 83.6348C330.131 83.979 330.846 84.4754 331.444 85.0958C332.042 85.7161 332.512 86.4482 332.827 87.2502C333.142 88.0521 333.296 88.9083 333.28 89.7699Z" stroke="white" stroke-miterlimit="10"/>
<path d="M325.37 91.96V85.3C325.79 85.23 326.34 85.17 327.04 85.17C327.9 85.17 328.53 85.37 328.93 85.73C329.3 86.05 329.52 86.54 329.52 87.14C329.52 87.75 329.34 88.23 329 88.58C328.54 89.07 327.79 89.32 326.94 89.32C326.68 89.32 326.44 89.31 326.24 89.26V91.96H325.37ZM326.24 85.93V88.55C326.43 88.6 326.67 88.62 326.96 88.62C328.01 88.62 328.65 88.11 328.65 87.18C328.65 86.29 328.02 85.86 327.06 85.86C326.68 85.86 326.39 85.89 326.24 85.93Z" fill="black"/>
</g>
<defs>
<clipPath id="clip0_297_6">
<rect width="474.47" height="336.78" fill="white"/>
</clipPath>
</defs>
</svg>